<svg width="65" height="67" viewBox="0 0 65 67" fill="none" xmlns="http://www.w3.org/2000/svg">
<path fill-rule="evenodd" clip-rule="evenodd" d="M64.3759 33.5004C64.3759 51.5574 50.0624 66.1629 32.4457 66.1629C14.8291 66.1629 0.515625 51.5574 0.515625 33.5004C0.515625 15.4434 14.8291 0.837891 32.4457 0.837891C50.0624 0.837891 64.3759 15.4434 64.3759 33.5004Z" stroke="currentColor" fill="none"/>
<path d="M48.007 17.3885L11.5956 31.5017C11.5956 31.5017 9.87411 32.0845 10.0074 33.1593C10.1442 34.2361 11.5489 34.7286 11.5489 34.7286L20.7109 37.7747C20.7109 37.7747 23.4763 46.7342 24.0206 48.4391C24.5649 50.1391 25.0015 50.1792 25.0015 50.1792C25.5084 50.3969 25.9691 50.0504 25.9691 50.0504L31.8884 44.7196L41.1139 51.708C43.6093 52.7833 44.5174 50.5429 44.5174 50.5429L51 18.2414C51 16.0898 48.007 17.3885 48.007 17.3885ZM41.5608 47.9451L31.6911 40.4708L28.6284 43.2281L29.3019 37.3618L42.4577 25.75L24.5249 35.6651L16.5704 33.0209L46.919 21.2569L41.5608 47.9451Z" fill="currentColor"/>
</svg>
