<svg width="65" height="67" viewBox="0 0 65 67" fill="none" xmlns="http://www.w3.org/2000/svg">
<path fill-rule="evenodd" clip-rule="evenodd" d="M64.3759 33.5004C64.3759 51.5574 50.0624 66.1629 32.4457 66.1629C14.8291 66.1629 0.515625 51.5574 0.515625 33.5004C0.515625 15.4434 14.8291 0.837891 32.4457 0.837891C50.0624 0.837891 64.3759 15.4434 64.3759 33.5004Z" stroke="currentColor" fill="none"/>
<path fill-rule="evenodd" clip-rule="evenodd" d="M16.4376 18.4253C12.735 18.4253 9.7334 21.4251 9.7334 25.1253V41.8753C9.7334 45.5755 12.735 48.5753 16.4376 48.5753H48.2825C51.9851 48.5753 54.9867 45.5755 54.9867 41.8753V25.1253C54.9867 21.4251 51.9851 18.4253 48.2825 18.4253H16.4376ZM26.9129 40.8654L38.2262 34.3378L26.9129 27.8101V40.8654Z" fill="currentColor"/>
</svg>
