<svg width="79" height="79" viewBox="0 0 79 79" fill="none" xmlns="http://www.w3.org/2000/svg">
<path fill-rule="evenodd" clip-rule="evenodd" d="M0 39.5C0 61.3153 17.6848 79 39.5 79C61.3153 79 79 61.3153 79 39.5C79 17.6848 61.3153 0 39.5 0C17.6848 0 0 17.6848 0 39.5ZM64.2898 37.9883C64.2846 50.9357 53.7521 61.4707 40.802 61.476H40.7923C36.8612 61.4747 32.9986 60.4884 29.568 58.6171L17.1167 61.8833L20.4488 49.7121C18.3934 46.15 17.3118 42.1094 17.3136 37.9698C17.3187 25.0195 27.8554 14.4833 40.8018 14.4833C47.0851 14.486 52.9824 16.9321 57.4169 21.3718C61.8514 25.8113 64.2923 31.7125 64.2898 37.9883Z" fill="white"/>
<path fill-rule="evenodd" clip-rule="evenodd" d="M22.7561 56.3034L30.1449 54.3652L30.8578 54.7882C33.8551 56.5669 37.291 57.5081 40.7941 57.5094H40.802C51.5621 57.5094 60.3197 48.7516 60.324 37.9871C60.326 32.7707 58.2973 27.8659 54.6115 24.1758C50.9257 20.4857 46.0241 18.4525 40.8097 18.4507C30.0413 18.4507 21.2836 27.2076 21.2793 37.9713C21.2778 41.6601 22.3099 45.2526 24.2641 48.3607L24.7283 49.0994L22.7561 56.3034ZM51.8313 43.0454C52.2406 43.2432 52.517 43.3768 52.6351 43.5738C52.7817 43.8185 52.7817 44.9936 52.2929 46.3647C51.8037 47.7356 49.4591 48.9867 48.3314 49.1552C47.3203 49.3064 46.0408 49.3694 44.6349 48.9226C43.7825 48.6522 42.6894 48.2911 41.2892 47.6864C35.7873 45.3106 32.0691 39.9781 31.3664 38.9703C31.3172 38.8997 31.2827 38.8503 31.2635 38.8246L31.2588 38.8183C30.9482 38.4039 28.8671 35.6272 28.8671 32.7535C28.8671 30.0502 30.1951 28.6332 30.8063 27.981C30.8482 27.9363 30.8867 27.8952 30.9212 27.8576C31.4591 27.27 32.095 27.1231 32.4862 27.1231C32.8774 27.1231 33.2691 27.1267 33.611 27.1439C33.6532 27.146 33.6971 27.1458 33.7425 27.1455C34.0845 27.1435 34.5109 27.141 34.9315 28.1513C35.0933 28.5402 35.3301 29.1166 35.5798 29.7245C36.0848 30.954 36.6428 32.3124 36.741 32.509C36.8877 32.8028 36.9855 33.1454 36.7899 33.5372C36.7605 33.596 36.7334 33.6514 36.7074 33.7044C36.5605 34.0044 36.4524 34.225 36.203 34.5162C36.105 34.6307 36.0036 34.7541 35.9023 34.8776C35.7004 35.1235 35.4985 35.3693 35.3227 35.5445C35.0289 35.8371 34.723 36.1546 35.0654 36.7422C35.4077 37.3297 36.5855 39.2515 38.3302 40.8078C40.2057 42.4806 41.8357 43.1877 42.662 43.546C42.8233 43.616 42.954 43.6727 43.0499 43.7207C43.6365 44.0146 43.9789 43.9654 44.3213 43.5738C44.6636 43.1821 45.7884 41.8601 46.1796 41.2726C46.5707 40.6853 46.9621 40.7831 47.5 40.9789C48.0381 41.1749 50.9234 42.5945 51.5103 42.8883C51.6249 42.9456 51.732 42.9974 51.8313 43.0454Z" fill="white"/>
</svg>
