<svg width="79" height="79" viewBox="0 0 79 79" fill="none" xmlns="http://www.w3.org/2000/svg">
<path fill-rule="evenodd" clip-rule="evenodd" d="M39.5 0C17.6848 0 0 17.6848 0 39.5C0 61.3153 17.6848 79 39.5 79C61.3153 79 79 61.3153 79 39.5C79 17.6848 61.3153 0 39.5 0ZM30.8154 18.5606C33.0621 18.4584 33.7803 18.4333 39.4987 18.4333C45.2188 18.4333 45.9344 18.4584 48.1811 18.5606C50.4238 18.6633 51.9556 19.0184 53.2986 19.5393C54.6855 20.077 55.8573 20.7968 57.0292 21.9686C58.201 23.1396 58.9208 24.3149 59.4607 25.7005C59.9785 27.04 60.334 28.5709 60.4394 30.8136C60.5403 33.0608 60.5667 33.7788 60.5667 39.5002C60.5667 45.2216 60.5403 45.9379 60.4394 48.185C60.334 50.4269 59.9785 51.9582 59.4607 53.2982C58.9208 54.6833 58.201 55.8587 57.0292 57.0296C55.8587 58.2015 54.6851 58.923 53.2999 59.4611C51.9595 59.9821 50.4269 60.3371 48.1842 60.4398C45.937 60.5421 45.2212 60.5671 39.4993 60.5671C33.7784 60.5671 33.0608 60.5421 30.8136 60.4398C28.5713 60.3371 27.04 59.9821 25.6997 59.4611C24.3149 58.923 23.1396 58.2015 21.9691 57.0296C20.7977 55.8587 20.0779 54.6833 19.5393 53.2977C19.0188 51.9582 18.6638 50.4273 18.5606 48.1846C18.4588 45.9375 18.4333 45.2216 18.4333 39.5002C18.4333 33.7788 18.4597 33.0603 18.5602 30.8132C18.6611 28.5713 19.0166 27.04 19.5389 25.7001C20.0787 24.3149 20.7985 23.1396 21.9704 21.9686C23.1413 20.7972 24.3167 20.0774 25.7023 19.5393C27.0418 19.0184 28.5727 18.6633 30.8154 18.5606ZM39.4987 18.4333C39.4998 18.4333 39.5009 18.4333 39.502 18.4333H39.4954C39.4965 18.4333 39.4976 18.4333 39.4987 18.4333Z" fill="white"/>
<path fill-rule="evenodd" clip-rule="evenodd" d="M37.612 22.2299C37.979 22.2293 38.3737 22.2295 38.7998 22.2297L39.5019 22.2299C45.1268 22.2299 45.7934 22.2501 48.0147 22.351C50.0687 22.4449 51.1835 22.7881 51.9261 23.0765C52.9092 23.4583 53.6101 23.9148 54.347 24.6521C55.0844 25.3895 55.5408 26.0917 55.9235 27.0748C56.2119 27.8166 56.5555 28.9313 56.649 30.9854C56.75 33.2062 56.7719 33.8733 56.7719 39.4955C56.7719 45.1177 56.75 45.7848 56.649 48.0056C56.5551 50.0597 56.2119 51.1745 55.9235 51.9162C55.5417 52.8993 55.0844 53.5993 54.347 54.3363C53.6097 55.0736 52.9097 55.53 51.9261 55.9119C51.1844 56.2015 50.0687 56.5439 48.0147 56.6378C45.7939 56.7388 45.1268 56.7607 39.5019 56.7607C33.8766 56.7607 33.2099 56.7388 30.9891 56.6378C28.9351 56.543 27.8203 56.1998 27.0773 55.9114C26.0941 55.5296 25.3919 55.0732 24.6546 54.3358C23.9172 53.5985 23.4608 52.898 23.0781 51.9144C22.7897 51.1727 22.4461 50.0579 22.3526 48.0039C22.2516 45.7831 22.2314 45.116 22.2314 39.4902C22.2314 33.8645 22.2516 33.2009 22.3526 30.9801C22.4465 28.9261 22.7897 27.8113 23.0781 27.0687C23.4599 26.0856 23.9172 25.3833 24.6546 24.646C25.3919 23.9086 26.0941 23.4522 27.0773 23.0695C27.8199 22.7798 28.9351 22.4375 30.9891 22.3431C32.9325 22.2553 33.6857 22.229 37.612 22.2246V22.2299ZM50.7472 25.7279C49.3515 25.7279 48.2192 26.8589 48.2192 28.255C48.2192 29.6507 49.3515 30.783 50.7472 30.783C52.1429 30.783 53.2753 29.6507 53.2753 28.255C53.2753 26.8593 52.1429 25.727 50.7472 25.727V25.7279ZM28.6832 39.5003C28.6832 33.5258 33.527 28.6818 39.5015 28.6816C45.4761 28.6816 50.3189 33.5257 50.3189 39.5003C50.3189 45.475 45.4766 50.3169 39.5019 50.3169C33.5272 50.3169 28.6832 45.475 28.6832 39.5003Z" fill="white"/>
<path d="M39.5018 32.478C43.3799 32.478 46.5241 35.6218 46.5241 39.5003C46.5241 43.3784 43.3799 46.5226 39.5018 46.5226C35.6233 46.5226 32.4795 43.3784 32.4795 39.5003C32.4795 35.6218 35.6233 32.478 39.5018 32.478Z" fill="white"/>
</svg>
