<svg width="27" height="36" viewBox="0 0 27 36" fill="none" xmlns="http://www.w3.org/2000/svg">
<path d="M0 31.5072C0 34.4976 1.3599 36 4.09291 36H16.5037C19.2367 36 20.5966 34.4833 20.5966 31.5072V28.8601H22.9071C25.6269 28.8601 27 27.3434 27 24.3673V12.7488C27 10.9889 26.6699 9.87281 25.6797 8.77106L19.0122 1.43084C18.0748 0.386328 16.9658 0 15.5531 0H10.4963C7.77653 0 6.40342 1.51669 6.40342 4.49285V7.1399H4.09291C1.37311 7.1399 0 8.64229 0 11.6328V31.5072ZM19.3423 16.5262L12.0675 8.49921C11.0641 7.38315 10.2323 7.1399 8.75354 7.1399H8.5291V4.53577C8.5291 3.11924 9.22885 2.30366 10.602 2.30366H16.4377V9.64388C16.4377 11.3037 17.177 12.0906 18.6954 12.0906H24.8743V24.3243C24.8743 25.7552 24.1614 26.5564 22.7883 26.5564H20.5966V20.3323C20.5966 18.5008 20.3985 17.6995 19.3423 16.5262ZM18.3521 9.30048V3.43402L24.3198 10.0159H18.999C18.5369 10.0159 18.3521 9.80127 18.3521 9.30048ZM2.12567 31.4642V11.6614C2.12567 10.2591 2.82543 9.44356 4.19853 9.44356H8.5291V17.7424C8.5291 19.5453 9.37408 20.4467 11.0112 20.4467H18.4709V31.4642C18.4709 32.8951 17.7579 33.6963 16.398 33.6963H4.18533C2.82543 33.6963 2.12567 32.8951 2.12567 31.4642ZM11.2621 18.2862C10.734 18.2862 10.5227 18.0572 10.5227 17.4849V9.97297L18.0616 18.2862H11.2621Z" fill="currentColor"/>
</svg>
