<svg width="79" height="79" viewBox="0 0 79 79" fill="none" xmlns="http://www.w3.org/2000/svg">
<path fill-rule="evenodd" clip-rule="evenodd" d="M0 39.5C0 61.3153 17.6848 79 39.5 79C61.3153 79 79 61.3153 79 39.5C79 17.6848 61.3153 0 39.5 0C17.6848 0 0 17.6848 0 39.5ZM24.4526 63.1413V54.7099C19.1721 50.6914 15.8 44.5714 15.8 37.7173C15.8 25.6126 26.3169 15.8 39.2903 15.8C52.2644 15.8 62.7805 25.6126 62.7805 37.7173C62.7805 49.821 52.2644 59.6345 39.2903 59.6345C36.8699 59.6345 34.5339 59.2926 32.3363 58.6592L24.4526 63.1413Z" fill="white"/>
<path d="M36.7815 31.7144L24.1133 45.1273L35.6424 38.8017L41.6662 45.1273L54.2628 31.7144L42.8617 37.9292L36.7815 31.7144Z" fill="white"/>
</svg>
