<svg width="79" height="79" viewBox="0 0 79 79" fill="none" xmlns="http://www.w3.org/2000/svg">
<path fill-rule="evenodd" clip-rule="evenodd" d="M0 39.5C0 61.3153 17.6848 79 39.5 79C61.3153 79 79 61.3153 79 39.5C79 17.6848 61.3153 0 39.5 0C17.6848 0 0 17.6848 0 39.5ZM32.2583 57.6042L32.9304 47.5354L32.9298 47.535L51.2462 31.0059C52.05 30.2924 51.0706 29.9445 50.0035 30.5916L27.3986 44.8528L17.6346 41.8053C15.526 41.1596 15.5108 39.7107 18.108 38.669L56.1564 23.9977C57.8941 23.2087 59.5714 24.4151 58.908 27.0748L52.4284 57.6093C51.9759 59.7791 50.6648 60.298 48.8483 59.2958L38.9778 52.0033L34.2333 56.6167C34.2184 56.6312 34.2035 56.6457 34.1887 56.6601C33.6581 57.1767 33.219 57.6042 32.2583 57.6042Z" fill="white"/>
</svg>
