<svg width="67" height="67" viewBox="0 0 67 67" fill="none" xmlns="http://www.w3.org/2000/svg">
<path fill-rule="evenodd" clip-rule="evenodd" d="M33.5 67C14.9985 67 0 52.0015 0 33.5C0 14.9985 14.9985 0 33.5 0C52.0015 0 67 14.9985 67 33.5C67 52.0015 52.0015 67 33.5 67ZM33.9668 31.6198C36.7097 31.6198 50.0468 24.12 50.0468 24.12L50.0682 22.78C50.0682 21.3006 48.8676 20.1 47.3842 20.1H20.5493C19.0673 20.1 17.8667 21.3006 17.8667 22.78V23.9739C17.8667 23.9739 31.3497 31.6198 33.9668 31.6198ZM17.8881 28.14C17.8868 28.14 31.3497 35.3048 33.9668 35.3048C36.8357 35.3048 50.0468 28.14 50.0468 28.14L50.0682 44.22C50.0682 45.6994 48.8676 46.9 47.3842 46.9H20.5493C19.0686 46.9 17.8667 45.6994 17.8667 44.22L17.8881 28.14Z" fill="white"/>
</svg>
