<svg width="65" height="65" viewBox="0 0 65 65" fill="none" xmlns="http://www.w3.org/2000/svg">
<path fill-rule="evenodd" clip-rule="evenodd" d="M32.2609 63.6739C49.5259 63.6739 63.5218 49.7205 63.5218 32.5084C63.5218 15.2961 49.5259 1.34277 32.2609 1.34277C14.996 1.34277 1 15.2961 1 32.5084C1 49.7205 14.996 63.6739 32.2609 63.6739Z" stroke="currentColor" fill="none"/>
<path fill-rule="evenodd" clip-rule="evenodd" d="M26.2632 18.1097C27.8134 18.0392 28.3085 18.0225 32.256 18.0225C36.2035 18.0225 36.6985 18.0392 38.2489 18.1097C39.796 18.1801 40.8526 18.4249 41.7772 18.7832C42.7331 19.1535 43.5438 19.649 44.3517 20.4546C45.1599 21.2602 45.6568 22.0683 46.0282 23.0211C46.3877 23.9429 46.6335 24.9962 46.704 26.5386C46.7747 28.0843 46.7913 28.5777 46.7913 32.5131C46.7913 36.4486 46.7747 36.9421 46.704 38.4878C46.6335 40.03 46.3877 41.0834 46.0282 42.0051C45.6568 42.9581 45.1599 43.7662 44.3517 44.5717C43.5438 45.3774 42.7331 45.8728 41.7772 46.2432C40.8526 46.6015 39.796 46.8463 38.2489 46.9168C36.6985 46.9872 36.2035 47.0039 32.256 47.0039C28.3085 47.0039 27.8134 46.9872 26.2632 46.9168C24.7159 46.8463 23.6594 46.6015 22.7347 46.2432C21.779 45.8728 20.9683 45.3774 20.1602 44.5717C19.3521 43.7662 18.8552 42.9579 18.4836 42.0051C18.1243 41.0834 17.8788 40.03 17.8081 38.4878C17.7374 36.9421 17.7207 36.4486 17.7207 32.5131C17.7207 28.5777 17.7374 28.0843 17.8081 26.5386C17.8788 24.9962 18.1243 23.9429 18.4836 23.0211C18.8552 22.0683 19.3521 21.2602 20.1602 20.4546C20.9683 19.649 21.779 19.1535 22.7347 18.7832C23.6594 18.4249 24.7159 18.1801 26.2632 18.1097ZM38.1294 20.7171C36.5969 20.6474 36.1371 20.6326 32.256 20.6326C28.3749 20.6326 27.9152 20.6474 26.3824 20.7171C24.9652 20.7816 24.1956 21.0177 23.6835 21.2161C23.005 21.479 22.5208 21.793 22.0121 22.3001C21.5035 22.8072 21.1885 23.2899 20.9248 23.9663C20.7258 24.477 20.4891 25.2443 20.4243 26.6572C20.3544 28.1851 20.3397 28.6436 20.3397 32.5128C20.3397 36.3821 20.3544 36.8405 20.4243 38.3684C20.4891 39.7813 20.7258 40.5487 20.9248 41.0593C21.1885 41.7357 21.5035 42.2184 22.0121 42.7255C22.5208 43.2326 23.005 43.5466 23.6835 43.8095C24.1956 44.0079 24.9652 44.244 26.3824 44.3085C27.915 44.3782 28.3746 44.393 32.256 44.393C36.1374 44.393 36.597 44.3782 38.1294 44.3085C39.5467 44.244 40.3163 44.0079 40.8284 43.8095C41.5069 43.5466 41.9912 43.2326 42.4999 42.7255C43.0084 42.2184 43.3234 41.7357 43.5871 41.0593C43.7861 40.5487 44.023 39.7813 44.0876 38.3684C44.1575 36.8405 44.1724 36.3821 44.1724 32.5128C44.1724 28.6436 44.1575 28.1851 44.0876 26.6572C44.023 25.2443 43.7861 24.477 43.5871 23.9663C43.3234 23.2899 43.0084 22.8072 42.4999 22.3001C41.9912 21.793 41.5069 21.479 40.8284 21.2161C40.3163 21.0177 39.5467 20.7816 38.1294 20.7171Z" fill="currentColor"/>
<path fill-rule="evenodd" clip-rule="evenodd" d="M24.771 32.5082C24.771 28.3838 28.1244 25.0405 32.2613 25.0405C36.3981 25.0405 39.7515 28.3838 39.7515 32.5082C39.7515 36.6323 36.3981 39.9756 32.2613 39.9756C28.1244 39.9756 24.771 36.6323 24.771 32.5082ZM27.3991 32.5091C27.3991 35.1861 29.576 37.3564 32.2613 37.3564C34.9465 37.3564 37.1234 35.1861 37.1234 32.5091C37.1234 29.8321 34.9465 27.6618 32.2613 27.6618C29.576 27.6618 27.3991 29.8321 27.3991 32.5091Z" fill="currentColor"/>
<path d="M41.5132 25.0415C41.5132 26.0123 40.7242 26.7993 39.7507 26.7993C38.7774 26.7993 37.9883 26.0123 37.9883 25.0415C37.9883 24.0706 38.7774 23.2837 39.7507 23.2837C40.7242 23.2837 41.5132 24.0706 41.5132 25.0415Z" fill="currentColor"/>
</svg>
