<svg width="79" height="79" viewBox="0 0 79 79" fill="none" xmlns="http://www.w3.org/2000/svg">
<path fill-rule="evenodd" clip-rule="evenodd" d="M39.5 0C17.6848 0 0 17.6848 0 39.5C0 61.3153 17.6848 79 39.5 79C61.3153 79 79 61.3153 79 39.5C79 17.6848 61.3153 0 39.5 0ZM38.3999 33.4729L38.317 32.1061C38.0683 28.5636 40.251 25.3279 43.7047 24.0727C44.9757 23.6264 47.1308 23.5706 48.5399 23.9611C49.0925 24.1285 50.1424 24.6864 50.8884 25.1885L52.2422 26.109L53.7342 25.6348C54.5631 25.3837 55.6683 24.9653 56.1656 24.6864C56.6353 24.4353 57.0497 24.2959 57.0497 24.3796C57.0497 24.8537 56.0274 26.4716 55.1709 27.3642C54.0105 28.6194 54.342 28.731 56.6905 27.8942C58.0996 27.42 58.1273 27.42 57.851 27.9499C57.6852 28.2289 56.8287 29.2052 55.9169 30.0977C54.3697 31.6319 54.2868 31.7993 54.2868 33.0824C54.2868 35.0628 53.3474 39.1911 52.408 41.4505C50.6673 45.6903 46.9374 50.0696 43.2074 52.2732C37.9578 55.3694 30.9675 56.1504 25.0825 54.3373C23.1208 53.7237 19.75 52.1616 19.75 51.8827C19.75 51.799 20.7723 51.6874 22.0156 51.6595C24.6128 51.6038 27.2099 50.8785 29.4203 49.5954L30.9123 48.7028L29.1993 48.1171C26.7679 47.2802 24.5851 45.3556 24.0326 43.5425C23.8668 42.9567 23.922 42.9288 25.4693 42.9288L27.0718 42.9009L25.718 42.2594C24.1154 41.4505 22.6511 40.0837 21.9327 38.689C21.4078 37.6848 20.7447 35.1465 20.9381 34.9512C20.9933 34.8676 21.5735 35.0349 22.2366 35.2581C24.1431 35.9554 24.3917 35.7881 23.2866 34.6165C21.2144 32.4966 20.5789 29.3446 21.5735 26.36L22.0432 25.0211L23.8668 26.8342C27.5968 30.4883 31.9898 32.664 37.0184 33.3055L38.3999 33.4729Z" fill="white"/>
</svg>
