<svg width="67" height="67" viewBox="0 0 67 67" fill="none" xmlns="http://www.w3.org/2000/svg">
<path fill-rule="evenodd" clip-rule="evenodd" d="M0 33.5C0 52.0015 14.9985 67 33.5 67C52.0015 67 67 52.0015 67 33.5C67 14.9985 52.0015 0 33.5 0C14.9985 0 0 14.9985 0 33.5ZM27.3583 48.8542L27.9283 40.3148L27.9278 40.3145L43.462 26.2961C44.1437 25.691 43.3131 25.396 42.408 25.9448L23.2368 38.0397L14.9559 35.4551C13.1676 34.9075 13.1548 33.6787 15.3574 32.7952L47.6263 20.3525C49.1001 19.6833 50.5226 20.7064 49.9599 22.9622L44.4646 48.8585C44.0808 50.6987 42.9689 51.1388 41.4283 50.2888L33.0571 44.104L29.0333 48.0167C29.0206 48.029 29.008 48.0413 28.9955 48.0535C28.5454 48.4917 28.1731 48.8542 27.3583 48.8542Z" fill="white"/>
</svg>
