<svg width="144" height="169" viewBox="0 0 144 169" fill="none" xmlns="http://www.w3.org/2000/svg">
<path d="M87.4277 61.6666C109.369 59.2305 129.224 75.312 131.708 97.7147C134.669 124.4 114.687 148.236 87.4277 151.261C54.7711 154.892 25.9676 130.547 22.3533 97.8421C17.9905 58.4822 47.8608 24.0581 87.4277 19.6636" stroke="#050008" stroke-width="0.5" stroke-miterlimit="2.6131"/>
<path fill-rule="evenodd" clip-rule="evenodd" d="M87.4288 70.8058C92.4761 70.8058 96.5841 66.6978 96.5841 61.6504C96.5841 56.6031 92.4761 52.4951 87.4288 52.4951C82.3814 52.4951 78.2734 56.6031 78.2734 61.6504C78.2734 66.6978 82.3973 70.8058 87.4288 70.8058Z" fill="#F5ADAD"/>
<path fill-rule="evenodd" clip-rule="evenodd" d="M89.6878 52.2568C94.7829 52.2568 98.9068 56.3807 98.9068 61.4759C98.9068 66.571 94.7829 70.6948 89.6878 70.6948C84.5926 70.6948 80.4688 66.571 80.4688 61.4759C80.4688 56.3966 84.5926 52.2568 89.6878 52.2568Z" fill="#F5AFAE"/>
<path fill-rule="evenodd" clip-rule="evenodd" d="M91.9624 52.1455C97.0894 52.1455 101.245 56.3013 101.245 61.4282C101.245 66.5552 97.0894 70.7109 91.9624 70.7109C86.8354 70.7109 82.6797 66.5552 82.6797 61.4282C82.6638 56.3013 86.8195 52.1455 91.9624 52.1455Z" fill="#F6AFAD"/>
<path fill-rule="evenodd" clip-rule="evenodd" d="M94.2256 52.1455C99.4004 52.1455 103.588 56.3331 103.588 61.5078C103.588 66.6826 99.4004 70.8702 94.2256 70.8702C89.0509 70.8702 84.8633 66.6826 84.8633 61.5078C84.8633 56.3331 89.0509 52.1455 94.2256 52.1455Z" fill="#F6B1AC"/>
<path fill-rule="evenodd" clip-rule="evenodd" d="M96.4885 52.2881C101.695 52.2881 105.915 56.5075 105.915 61.7141C105.915 66.9207 101.695 71.1401 96.4885 71.1401C91.2819 71.1401 87.0625 66.9207 87.0625 61.7141C87.0625 56.5075 91.2819 52.2881 96.4885 52.2881Z" fill="#F6B3AB"/>
<path fill-rule="evenodd" clip-rule="evenodd" d="M98.7319 52.5435C103.97 52.5435 108.222 56.7947 108.222 62.0332C108.222 67.2716 103.97 71.5229 98.7319 71.5229C93.4934 71.5229 89.2422 67.2716 89.2422 62.0332C89.2422 56.7947 93.4775 52.5435 98.7319 52.5435Z" fill="#F7B5AD"/>
<path fill-rule="evenodd" clip-rule="evenodd" d="M100.944 52.9414C106.231 52.9414 110.514 57.2245 110.514 62.5107C110.514 67.7969 106.231 72.0801 100.944 72.0801C95.6581 72.0801 91.375 67.7969 91.375 62.5107C91.3909 57.2245 95.674 52.9414 100.944 52.9414Z" fill="#F7B5AD"/>
<path fill-rule="evenodd" clip-rule="evenodd" d="M103.145 53.4517C108.463 53.4517 112.778 57.7666 112.778 63.0846C112.778 68.4027 108.463 72.7177 103.145 72.7177C97.8266 72.7177 93.5117 68.4027 93.5117 63.0846C93.5117 57.7666 97.8266 53.4517 103.145 53.4517Z" fill="#F7B7AA"/>
<path fill-rule="evenodd" clip-rule="evenodd" d="M105.29 54.1045C110.64 54.1045 114.987 58.4513 114.987 63.8012C114.987 69.1511 110.64 73.4979 105.29 73.4979C99.9405 73.4979 95.5938 69.1511 95.5938 63.8012C95.5937 58.4513 99.9405 54.1045 105.29 54.1045Z" fill="#F7B9AB"/>
<path fill-rule="evenodd" clip-rule="evenodd" d="M107.394 54.8682C112.791 54.8682 117.17 59.2468 117.17 64.6444C117.17 70.0421 112.791 74.4208 107.394 74.4208C101.996 74.4208 97.6172 70.0421 97.6172 64.6444C97.6331 59.2468 101.996 54.8682 107.394 54.8682Z" fill="#F7B9AA"/>
<path fill-rule="evenodd" clip-rule="evenodd" d="M109.449 55.7593C114.879 55.7593 119.289 60.1697 119.289 65.5993C119.289 71.0288 114.879 75.4392 109.449 75.4392C104.02 75.4392 99.6094 71.0288 99.6094 65.5993C99.6253 60.1697 104.02 55.7593 109.449 55.7593Z" fill="#F7B9AA"/>
<path fill-rule="evenodd" clip-rule="evenodd" d="M111.451 56.7632C116.928 56.7632 121.354 61.2055 121.354 66.6669C121.354 72.1441 116.912 76.5705 111.451 76.5705C105.973 76.5705 101.547 72.1282 101.547 66.6669C101.547 61.2055 105.973 56.7632 111.451 56.7632Z" fill="#F8BBA9"/>
<path fill-rule="evenodd" clip-rule="evenodd" d="M113.397 57.8765C118.906 57.8765 123.364 62.3347 123.364 67.8438C123.364 73.353 118.89 77.8112 113.397 77.8112C107.888 77.8112 103.43 73.353 103.43 67.8438C103.414 62.3347 107.888 57.8765 113.397 57.8765Z" fill="#F8BDAA"/>
<path fill-rule="evenodd" clip-rule="evenodd" d="M115.258 59.0879C120.799 59.0879 125.305 63.578 125.305 69.1349C125.305 74.6758 120.815 79.1818 115.258 79.1818C109.717 79.1818 105.211 74.6917 105.211 69.1349C105.211 63.5939 109.717 59.0879 115.258 59.0879Z" fill="#F8BEA9"/>
<path fill-rule="evenodd" clip-rule="evenodd" d="M117.06 60.4097C122.649 60.4097 127.171 64.9316 127.171 70.5203C127.171 76.1091 122.649 80.631 117.06 80.631C111.471 80.631 106.949 76.1091 106.949 70.5203C106.933 64.9475 111.471 60.4097 117.06 60.4097Z" fill="#F8BEA7"/>
<path fill-rule="evenodd" clip-rule="evenodd" d="M118.764 61.8418C124.385 61.8418 128.939 66.3956 128.939 72.0162C128.939 77.6367 124.385 82.1905 118.764 82.1905C113.144 82.1905 108.59 77.6367 108.59 72.0162C108.574 66.3956 113.144 61.8418 118.764 61.8418Z" fill="#F9C2A9"/>
<path fill-rule="evenodd" clip-rule="evenodd" d="M120.387 63.3545C126.039 63.3545 130.641 67.9401 130.641 73.6085C130.641 79.2768 126.055 83.8624 120.387 83.8624C114.718 83.8624 110.133 79.2768 110.133 73.6085C110.133 67.9401 114.718 63.3545 120.387 63.3545Z" fill="#F9C2A7"/>
<path fill-rule="evenodd" clip-rule="evenodd" d="M121.915 64.9468C127.616 64.9468 132.233 69.5643 132.233 75.2645C132.233 80.9646 127.616 85.5821 121.915 85.5821C116.215 85.5821 111.598 80.9646 111.598 75.2645C111.598 69.5802 116.215 64.9468 121.915 64.9468Z" fill="#F9C4A8"/>
<path fill-rule="evenodd" clip-rule="evenodd" d="M123.366 66.6338C129.098 66.6338 133.747 71.2831 133.747 77.0151C133.747 82.7471 129.098 87.3965 123.366 87.3965C117.634 87.3965 112.984 82.7471 112.984 77.0151C112.968 71.2831 117.618 66.6338 123.366 66.6338Z" fill="#FAC6A9"/>
<path fill-rule="evenodd" clip-rule="evenodd" d="M124.699 68.4023C130.479 68.4023 135.16 73.0835 135.16 78.8633C135.16 84.6431 130.479 89.3242 124.699 89.3242C118.919 89.3242 114.238 84.6431 114.238 78.8633C114.238 73.0835 118.919 68.4023 124.699 68.4023Z" fill="#FAC6A7"/>
<path fill-rule="evenodd" clip-rule="evenodd" d="M125.946 70.2339C131.758 70.2339 136.471 74.9469 136.471 80.7585C136.471 86.5702 131.758 91.2832 125.946 91.2832C120.135 91.2832 115.422 86.5702 115.422 80.7585C115.422 74.9469 120.135 70.2339 125.946 70.2339Z" fill="#FAC7A6"/>
<path fill-rule="evenodd" clip-rule="evenodd" d="M127.057 72.1279C132.901 72.1279 137.645 76.8728 137.645 82.7163C137.645 88.5597 132.901 93.3046 127.057 93.3046C121.214 93.3046 116.469 88.5597 116.469 82.7163C116.469 76.8728 121.214 72.1279 127.057 72.1279Z" fill="#FAC9A7"/>
<path fill-rule="evenodd" clip-rule="evenodd" d="M128.074 74.0869C133.965 74.0869 138.742 78.8636 138.742 84.7549C138.742 90.6461 133.965 95.4228 128.074 95.4228C122.183 95.4228 117.406 90.6461 117.406 84.7549C117.406 78.8636 122.183 74.0869 128.074 74.0869Z" fill="#FAC9A5"/>
<path fill-rule="evenodd" clip-rule="evenodd" d="M128.982 76.1084C134.905 76.1084 139.713 80.9169 139.713 86.84C139.713 92.7631 134.905 97.5716 128.982 97.5716C123.059 97.5716 118.25 92.7631 118.25 86.84C118.25 80.901 123.043 76.1084 128.982 76.1084Z" fill="#FBCBA6"/>
<path fill-rule="evenodd" clip-rule="evenodd" d="M129.764 78.1621C135.735 78.1621 140.559 83.0025 140.559 88.9574C140.559 94.9283 135.719 99.7528 129.764 99.7528C123.793 99.7528 118.969 94.9124 118.969 88.9574C118.969 83.0025 123.793 78.1621 129.764 78.1621Z" fill="#FBCDA5"/>
<path fill-rule="evenodd" clip-rule="evenodd" d="M130.43 80.2642C136.432 80.2642 141.305 85.1364 141.305 91.1391C141.305 97.1418 136.432 102.014 130.43 102.014C124.427 102.014 119.555 97.1418 119.555 91.1391C119.555 85.1205 124.427 80.2642 130.43 80.2642Z" fill="#FBCFA6"/>
<path fill-rule="evenodd" clip-rule="evenodd" d="M130.993 82.3979C137.028 82.3979 141.932 87.302 141.932 93.3366C141.932 99.3711 137.028 104.275 130.993 104.275C124.959 104.275 120.055 99.3711 120.055 93.3366C120.055 87.2861 124.943 82.3979 130.993 82.3979Z" fill="#FBCEA4"/>
<path fill-rule="evenodd" clip-rule="evenodd" d="M131.424 84.5464C137.507 84.5464 142.427 89.4664 142.427 95.5487C142.427 101.631 137.507 106.551 131.424 106.551C125.342 106.551 120.422 101.631 120.422 95.5487C120.406 89.4823 125.342 84.5464 131.424 84.5464Z" fill="#FCD0A3"/>
<path fill-rule="evenodd" clip-rule="evenodd" d="M131.723 86.728C137.837 86.728 142.789 91.6799 142.789 97.7941C142.789 103.908 137.837 108.86 131.723 108.86C125.608 108.86 120.641 103.908 120.641 97.7941C120.641 91.6799 125.608 86.728 131.723 86.728Z" fill="#FCD2A4"/>
<path fill-rule="evenodd" clip-rule="evenodd" d="M131.911 88.9253C138.057 88.9253 143.057 93.909 143.057 100.071C143.057 106.217 138.073 111.217 131.911 111.217C125.765 111.217 120.766 106.233 120.766 100.071C120.766 93.909 125.749 88.9253 131.911 88.9253Z" fill="#FDD3A2"/>
<path fill-rule="evenodd" clip-rule="evenodd" d="M131.994 91.1235C138.188 91.1235 143.204 96.1391 143.204 102.333C143.204 108.527 138.188 113.542 131.994 113.542C125.801 113.542 120.785 108.527 120.785 102.333C120.785 96.1391 125.801 91.1235 131.994 91.1235Z" fill="#FDD5A3"/>
<path fill-rule="evenodd" clip-rule="evenodd" d="M131.96 93.3208C138.186 93.3208 143.233 98.3682 143.233 104.594C143.233 110.819 138.186 115.867 131.96 115.867C125.735 115.867 120.688 110.819 120.688 104.594C120.688 98.3682 125.735 93.3208 131.96 93.3208Z" fill="#FDD5A1"/>
<path d="M131.817 118.223C138.087 118.223 143.17 113.141 143.17 106.871C143.17 100.601 138.087 95.5181 131.817 95.5181C125.548 95.5181 120.465 100.601 120.465 106.871C120.465 113.141 125.548 118.223 131.817 118.223Z" fill="#FED9A2"/>
<path fill-rule="evenodd" clip-rule="evenodd" d="M131.576 97.6997C137.882 97.6997 142.993 102.811 142.993 109.116C142.993 115.421 137.882 120.532 131.576 120.532C125.271 120.532 120.16 115.421 120.16 109.116C120.16 102.811 125.271 97.6997 131.576 97.6997Z" fill="#FED9A0"/>
<path fill-rule="evenodd" clip-rule="evenodd" d="M131.23 99.8638C137.567 99.8638 142.71 105.007 142.71 111.344C142.71 117.681 137.567 122.824 131.23 122.824C124.893 122.824 119.75 117.681 119.75 111.344C119.734 105.007 124.877 99.8638 131.23 99.8638Z" fill="#FEDAA1"/>
<path fill-rule="evenodd" clip-rule="evenodd" d="M130.771 102.03C137.155 102.03 142.33 107.205 142.33 113.59C142.33 119.975 137.155 125.149 130.771 125.149C124.386 125.149 119.211 119.975 119.211 113.59C119.211 107.189 124.386 102.03 130.771 102.03Z" fill="#FEDCA2"/>
<path fill-rule="evenodd" clip-rule="evenodd" d="M130.194 104.148C136.61 104.148 141.817 109.355 141.817 115.771C141.817 122.188 136.61 127.395 130.194 127.395C123.777 127.395 118.57 122.188 118.57 115.771C118.57 109.355 123.777 104.148 130.194 104.148Z" fill="#FEDCA0"/>
<path fill-rule="evenodd" clip-rule="evenodd" d="M129.523 106.25C135.971 106.25 141.21 111.488 141.21 117.937C141.21 124.386 135.971 129.624 129.523 129.624C123.058 129.624 117.836 124.386 117.836 117.937C117.836 111.488 123.058 106.25 129.523 106.25Z" fill="#FFDEA0"/>
<path fill-rule="evenodd" clip-rule="evenodd" d="M128.743 108.303C135.239 108.303 140.51 113.573 140.51 120.069C140.51 126.566 135.239 131.836 128.743 131.836C122.247 131.836 116.977 126.566 116.977 120.069C116.977 113.573 122.247 108.303 128.743 108.303Z" fill="#FFDF9F"/>
<path fill-rule="evenodd" clip-rule="evenodd" d="M127.869 110.325C134.397 110.325 139.7 115.627 139.7 122.155C139.7 128.684 134.397 133.986 127.869 133.986C121.341 133.986 116.039 128.684 116.039 122.155C116.039 115.627 121.341 110.325 127.869 110.325Z" fill="#FFE19F"/>
<path fill-rule="evenodd" clip-rule="evenodd" d="M126.898 112.315C133.474 112.315 138.792 117.649 138.792 124.209C138.792 130.785 133.458 136.103 126.898 136.103C120.322 136.103 115.004 130.769 115.004 124.209C115.004 117.633 120.322 112.315 126.898 112.315Z" fill="#FFE19F"/>
<path fill-rule="evenodd" clip-rule="evenodd" d="M125.833 114.243C132.441 114.243 137.807 119.609 137.807 126.216C137.807 132.824 132.457 138.19 125.833 138.19C119.225 138.19 113.859 132.824 113.859 126.216C113.859 119.609 119.209 114.243 125.833 114.243Z" fill="#FFE49E"/>
<path fill-rule="evenodd" clip-rule="evenodd" d="M124.67 116.121C131.31 116.121 136.707 121.502 136.707 128.158C136.707 134.798 131.326 140.195 124.67 140.195C118.03 140.195 112.633 134.813 112.633 128.158C112.633 121.502 118.015 116.121 124.67 116.121Z" fill="#FFE49E"/>
<path fill-rule="evenodd" clip-rule="evenodd" d="M123.41 117.937C130.097 117.937 135.511 123.351 135.511 130.038C135.511 136.725 130.097 142.139 123.41 142.139C116.722 142.139 111.309 136.725 111.309 130.038C111.309 123.351 116.722 117.937 123.41 117.937Z" fill="#FFE59D"/>
<path d="M126.756 143.125C132.971 140.55 135.925 133.432 133.354 127.225C130.783 121.017 123.66 118.073 117.445 120.647C111.23 123.222 108.276 130.34 110.847 136.548C113.418 142.755 120.541 145.699 126.756 143.125Z" fill="#FFE79D"/>
<path d="M129.31 142.302C134.091 137.521 134.091 129.768 129.31 124.987C124.528 120.205 116.775 120.205 111.994 124.987C107.212 129.768 107.212 137.521 111.994 142.302C116.775 147.084 124.528 147.084 129.31 142.302Z" fill="#FFE99C"/>
<path fill-rule="evenodd" clip-rule="evenodd" d="M119.144 123.031C125.943 123.031 131.452 128.54 131.452 135.339C131.452 142.138 125.943 147.647 119.144 147.647C112.345 147.647 106.836 142.138 106.836 135.339C106.836 128.556 112.345 123.031 119.144 123.031Z" fill="#FFEA9C"/>
<path fill-rule="evenodd" clip-rule="evenodd" d="M117.567 124.592C124.398 124.592 129.939 130.133 129.939 136.963C129.939 143.794 124.398 149.335 117.567 149.335C110.736 149.335 105.195 143.794 105.195 136.963C105.195 130.149 110.736 124.592 117.567 124.592Z" fill="#FFEC9D"/>
<path fill-rule="evenodd" clip-rule="evenodd" d="M115.928 126.089C122.806 126.089 128.379 131.662 128.379 138.541C128.379 145.419 122.806 150.992 115.928 150.992C109.049 150.992 103.477 145.419 103.477 138.541C103.477 131.662 109.049 126.089 115.928 126.089Z" fill="#FFEE9B"/>
<path fill-rule="evenodd" clip-rule="evenodd" d="M114.21 127.505C121.121 127.505 126.725 133.11 126.725 140.02C126.725 146.931 121.121 152.535 114.21 152.535C107.3 152.535 101.695 146.931 101.695 140.02C101.695 133.11 107.3 127.505 114.21 127.505Z" fill="#FFEF9C"/>
<path d="M112.426 154C119.373 154 125.005 148.368 125.005 141.421C125.005 134.474 119.373 128.843 112.426 128.843C105.479 128.843 99.8477 134.474 99.8477 141.421C99.8477 148.368 105.479 154 112.426 154Z" fill="#FFEE99"/>
<path d="M110.572 155.387C117.563 155.387 123.231 149.72 123.231 142.729C123.231 135.738 117.563 130.07 110.572 130.07C103.581 130.07 97.9141 135.738 97.9141 142.729C97.9141 149.72 103.581 155.387 110.572 155.387Z" fill="#FFF09A"/>
<path d="M113.558 155.728C120.049 153.039 123.132 145.597 120.443 139.105C117.754 132.614 110.312 129.531 103.82 132.22C97.3287 134.909 94.2462 142.351 96.9351 148.843C99.624 155.334 107.066 158.417 113.558 155.728Z" fill="#FFF19D"/>
<path fill-rule="evenodd" clip-rule="evenodd" d="M106.707 132.315C113.777 132.315 119.493 138.047 119.493 145.101C119.493 152.17 113.761 157.886 106.707 157.886C99.638 157.886 93.9219 152.154 93.9219 145.101C93.9219 138.047 99.638 132.315 106.707 132.315Z" fill="#FDF09F"/>
<path fill-rule="evenodd" clip-rule="evenodd" d="M104.697 133.303C111.799 133.303 117.562 139.067 117.562 146.168C117.562 153.269 111.799 159.033 104.697 159.033C97.5959 159.033 91.832 153.269 91.832 146.168C91.832 139.067 97.5959 133.303 104.697 133.303Z" fill="#FBF1A2"/>
<path fill-rule="evenodd" clip-rule="evenodd" d="M102.648 134.209C109.781 134.209 115.577 140.005 115.577 147.138C115.577 154.271 109.781 160.067 102.648 160.067C95.5145 160.067 89.7188 154.271 89.7188 147.138C89.7188 139.989 95.5145 134.209 102.648 134.209Z" fill="#F9F0A2"/>
<path fill-rule="evenodd" clip-rule="evenodd" d="M100.563 135.005C107.744 135.005 113.556 140.817 113.556 147.997C113.556 155.178 107.744 160.99 100.563 160.99C93.382 160.99 87.5703 155.178 87.5703 147.997C87.5544 140.832 93.382 135.005 100.563 135.005Z" fill="#F7F1A4"/>
<path d="M98.4238 161.867C105.643 161.867 111.496 156.014 111.496 148.794C111.496 141.575 105.643 135.722 98.4238 135.722C91.2042 135.722 85.3516 141.575 85.3516 148.794C85.3516 156.014 91.2042 161.867 98.4238 161.867Z" fill="#F3F0A7"/>
<path d="M96.2609 162.616C103.516 162.616 109.397 156.734 109.397 149.48C109.397 142.225 103.516 136.344 96.2609 136.344C89.0061 136.344 83.125 142.225 83.125 149.48C83.125 156.734 89.0061 162.616 96.2609 162.616Z" fill="#F1EFA9"/>
<path fill-rule="evenodd" clip-rule="evenodd" d="M94.0785 136.87C101.371 136.87 107.278 142.777 107.278 150.069C107.278 157.362 101.371 163.269 94.0785 163.269C86.786 163.269 80.8789 157.362 80.8789 150.069C80.8789 142.777 86.786 136.87 94.0785 136.87Z" fill="#EFEEAB"/>
<path fill-rule="evenodd" clip-rule="evenodd" d="M91.8492 137.283C99.1735 137.283 105.113 143.222 105.113 150.562C105.113 157.887 99.1735 163.826 91.8492 163.826C84.5249 163.826 78.5859 157.887 78.5859 150.562C78.5859 143.222 84.5249 137.283 91.8492 137.283Z" fill="#EDEDAB"/>
<path fill-rule="evenodd" clip-rule="evenodd" d="M89.6242 137.617C96.9962 137.617 102.967 143.588 102.967 150.96C102.967 158.332 96.9962 164.303 89.6242 164.303C82.2521 164.303 76.2812 158.332 76.2812 150.96C76.2812 143.588 82.268 137.617 89.6242 137.617Z" fill="#EBEDAD"/>
<path fill-rule="evenodd" clip-rule="evenodd" d="M87.3753 137.855C94.7792 137.855 100.782 143.858 100.782 151.262C100.782 158.666 94.7792 164.669 87.3753 164.669C79.9714 164.669 73.9688 158.666 73.9688 151.262C73.9688 143.858 79.9714 137.855 87.3753 137.855Z" fill="#E8ECAF"/>
<path d="M98.4346 153.615C99.6264 146.271 94.6394 139.352 87.296 138.16C79.9525 136.968 73.0333 141.955 71.8415 149.299C70.6497 156.642 75.6366 163.561 82.9801 164.753C90.3235 165.945 97.2428 160.958 98.4346 153.615Z" fill="#E6EBB1"/>
<path d="M82.8507 165.115C90.3341 165.115 96.4006 159.048 96.4006 151.565C96.4006 144.082 90.3341 138.015 82.8507 138.015C75.3673 138.015 69.3008 144.082 69.3008 151.565C69.3008 159.048 75.3673 165.115 82.8507 165.115Z" fill="#E4EBB1"/>
<path fill-rule="evenodd" clip-rule="evenodd" d="M80.5745 137.983C88.0899 137.983 94.1881 144.081 94.1881 151.597C94.1881 159.112 88.0899 165.21 80.5745 165.21C73.0592 165.21 66.9609 159.112 66.9609 151.597C66.9609 144.081 73.0592 137.983 80.5745 137.983Z" fill="#E2EAB5"/>
<path d="M78.3179 165.227C85.8716 165.227 91.9951 159.103 91.9951 151.549C91.9951 143.996 85.8716 137.872 78.3179 137.872C70.7641 137.872 64.6406 143.996 64.6406 151.549C64.6406 159.103 70.7641 165.227 78.3179 165.227Z" fill="#E2EAB5"/>
<path fill-rule="evenodd" clip-rule="evenodd" d="M76.0577 137.633C83.6526 137.633 89.8145 143.795 89.8145 151.39C89.8145 158.985 83.6526 165.147 76.0577 165.147C68.4627 165.147 62.3008 158.985 62.3008 151.39C62.3008 143.795 68.4627 137.633 76.0577 137.633Z" fill="#DDE8B7"/>
<path fill-rule="evenodd" clip-rule="evenodd" d="M73.7893 137.314C81.4161 137.314 87.6099 143.508 87.6099 151.135C87.6099 158.761 81.4161 164.955 73.7893 164.955C66.1625 164.955 59.9688 158.761 59.9688 151.135C59.9688 143.508 66.1625 137.314 73.7893 137.314Z" fill="#DBE8B9"/>
<path fill-rule="evenodd" clip-rule="evenodd" d="M71.5483 136.932C79.2229 136.932 85.4326 143.157 85.4326 150.816C85.4326 158.49 79.2069 164.7 71.5483 164.7C63.8738 164.7 57.6641 158.475 57.6641 150.816C57.6641 143.141 63.8738 136.932 71.5483 136.932Z" fill="#D8E7BB"/>
<path d="M74.6829 163.31C81.808 160.358 85.1915 152.19 82.2401 145.064C79.2887 137.939 71.1201 134.556 63.9949 137.507C56.8698 140.459 53.4863 148.627 56.4377 155.752C59.3891 162.877 67.5578 166.261 74.6829 163.31Z" fill="#D8E7BD"/>
<path d="M67.1057 163.92C74.8529 163.92 81.1333 157.639 81.1333 149.892C81.1333 142.145 74.8529 135.865 67.1057 135.865C59.3585 135.865 53.0781 142.145 53.0781 149.892C53.0781 157.639 59.3585 163.92 67.1057 163.92Z" fill="#D6E7BF"/>
<path d="M64.9271 163.396C72.7095 163.396 79.0184 157.087 79.0184 149.305C79.0184 141.523 72.7095 135.214 64.9271 135.214C57.1448 135.214 50.8359 141.523 50.8359 149.305C50.8359 157.087 57.1448 163.396 64.9271 163.396Z" fill="#D4E6C3"/>
<path fill-rule="evenodd" clip-rule="evenodd" d="M62.7607 134.448C70.5785 134.448 76.9315 140.785 76.9315 148.619C76.9315 156.437 70.5945 162.79 62.7607 162.79C54.9269 162.79 48.5898 156.453 48.5898 148.619C48.5898 140.801 54.9428 134.448 62.7607 134.448Z" fill="#D4E6C3"/>
<path fill-rule="evenodd" clip-rule="evenodd" d="M60.6252 133.621C68.4908 133.621 74.8597 139.99 74.8597 147.856C74.8597 155.721 68.4908 162.09 60.6252 162.09C52.7596 162.09 46.3906 155.721 46.3906 147.856C46.3906 140.006 52.7596 133.621 60.6252 133.621Z" fill="#D1E6C7"/>
<path fill-rule="evenodd" clip-rule="evenodd" d="M58.5091 132.713C66.4066 132.713 72.8074 139.114 72.8074 147.011C72.8074 154.909 66.4066 161.309 58.5091 161.309C50.6117 161.309 44.2109 154.909 44.2109 147.011C44.2109 139.13 50.6117 132.713 58.5091 132.713Z" fill="#CFE5C7"/>
<path fill-rule="evenodd" clip-rule="evenodd" d="M56.4521 131.71C64.3814 131.71 70.8299 138.143 70.8299 146.088C70.8299 154.017 64.3973 160.45 56.4521 160.45C48.5228 160.45 42.0742 154.017 42.0742 146.088C42.0742 138.143 48.5068 131.71 56.4521 131.71Z" fill="#CFE5CA"/>
<path fill-rule="evenodd" clip-rule="evenodd" d="M54.4181 130.626C62.3952 130.626 68.8596 137.09 68.8596 145.068C68.8596 153.045 62.3952 159.509 54.4181 159.509C46.441 159.509 39.9766 153.045 39.9766 145.068C39.9766 137.09 46.441 130.626 54.4181 130.626Z" fill="#CDE4CA"/>
<path fill-rule="evenodd" clip-rule="evenodd" d="M52.4271 129.48C60.436 129.48 66.9323 135.977 66.9323 143.986C66.9323 151.995 60.436 158.491 52.4271 158.491C44.4182 158.491 37.9219 151.995 37.9219 143.986C37.9219 135.977 44.4182 129.48 52.4271 129.48Z" fill="#CCE4CC"/>
<path fill-rule="evenodd" clip-rule="evenodd" d="M50.483 128.255C58.5397 128.255 65.0519 134.783 65.0519 142.824C65.0519 150.88 58.5238 157.393 50.483 157.393C42.4423 157.393 35.9141 150.865 35.9141 142.824C35.8982 134.783 42.4264 128.255 50.483 128.255Z" fill="#CAE4CE"/>
<path fill-rule="evenodd" clip-rule="evenodd" d="M48.5743 126.949C56.6629 126.949 63.2229 133.509 63.2229 141.597C63.2229 149.686 56.6629 156.246 48.5743 156.246C40.4858 156.246 33.9258 149.686 33.9258 141.597C33.9258 133.509 40.4858 126.949 48.5743 126.949Z" fill="#CAE4D0"/>
<path d="M52.3768 153.873C59.8837 150.764 63.4486 142.157 60.339 134.65C57.2294 127.143 48.623 123.578 41.116 126.688C33.609 129.798 30.0442 138.404 33.1538 145.911C36.2634 153.418 44.8698 156.983 52.3768 153.873Z" fill="#CAE4D2"/>
<path d="M55.3636 149.339C61.1339 143.569 61.1339 134.213 55.3636 128.443C49.5934 122.673 40.2379 122.673 34.4676 128.443C28.6973 134.213 28.6973 143.569 34.4676 149.339C40.2379 155.109 49.5934 155.109 55.3636 149.339Z" fill="#C7E3D4"/>
<path d="M43.1758 152.313C51.3803 152.313 58.0313 145.662 58.0313 137.457C58.0313 129.253 51.3803 122.602 43.1758 122.602C34.9713 122.602 28.3203 129.253 28.3203 137.457C28.3203 145.662 34.9713 152.313 43.1758 152.313Z" fill="#C7E3D4"/>
<path d="M41.4856 150.865C49.7252 150.865 56.4048 144.185 56.4048 135.946C56.4048 127.706 49.7252 121.026 41.4856 121.026C33.246 121.026 26.5664 127.706 26.5664 135.946C26.5664 144.185 33.246 150.865 41.4856 150.865Z" fill="#C5E2D6"/>
<path fill-rule="evenodd" clip-rule="evenodd" d="M39.8462 119.386C48.1258 119.386 54.8291 126.089 54.8291 134.369C54.8291 142.648 48.1258 149.352 39.8462 149.352C31.5666 149.352 24.8633 142.648 24.8633 134.369C24.8474 126.105 31.5666 119.386 39.8462 119.386Z" fill="#C5E3D7"/>
<path fill-rule="evenodd" clip-rule="evenodd" d="M38.2695 117.682C46.581 117.682 53.332 124.417 53.332 132.744C53.332 141.056 46.5969 147.807 38.2695 147.807C29.9581 147.807 23.207 141.071 23.207 132.744C23.223 124.417 29.9581 117.682 38.2695 117.682Z" fill="#C2E2D9"/>
<path d="M51.4801 134.57C53.3999 126.439 48.3654 118.292 40.2353 116.373C32.1052 114.453 23.9582 119.487 22.0385 127.618C20.1188 135.748 25.1532 143.895 33.2833 145.814C41.4134 147.734 49.5604 142.7 51.4801 134.57Z" fill="#C2E2D9"/>
<path fill-rule="evenodd" clip-rule="evenodd" d="M35.3266 114.099C43.7176 114.099 50.5165 120.898 50.5165 129.289C50.5165 137.68 43.7176 144.479 35.3266 144.479C26.9355 144.479 20.1367 137.68 20.1367 129.289C20.1208 120.914 26.9355 114.099 35.3266 114.099Z" fill="#BFE1DB"/>
<path d="M33.9218 142.775C42.3549 142.775 49.1914 135.939 49.1914 127.506C49.1914 119.073 42.3549 112.236 33.9218 112.236C25.4887 112.236 18.6523 119.073 18.6523 127.506C18.6523 135.939 25.4887 142.775 33.9218 142.775Z" fill="#BFE1DB"/>
<path d="M43.456 136.499C49.4439 130.511 49.4439 120.803 43.4559 114.815C37.468 108.827 27.7597 108.827 21.7718 114.815C15.7839 120.803 15.7839 130.511 21.7718 136.499C27.7597 142.487 37.4681 142.487 43.456 136.499Z" fill="#BDE0DB"/>
<path fill-rule="evenodd" clip-rule="evenodd" d="M31.3774 108.352C39.8799 108.352 46.7742 115.246 46.7742 123.749C46.7742 132.251 39.8799 139.146 31.3774 139.146C22.8748 139.146 15.9805 132.251 15.9805 123.749C15.9805 115.246 22.8748 108.352 31.3774 108.352Z" fill="#BDE0DC"/>
<path fill-rule="evenodd" clip-rule="evenodd" d="M30.2109 106.345C38.7611 106.345 45.6873 113.271 45.6873 121.822C45.6873 130.372 38.7611 137.298 30.2109 137.298C21.6606 137.298 14.7344 130.372 14.7344 121.822C14.7344 113.271 21.6606 106.345 30.2109 106.345Z" fill="#BCE0DE"/>
<path fill-rule="evenodd" clip-rule="evenodd" d="M29.1144 104.291C37.6965 104.291 44.6546 111.249 44.6546 119.831C44.6546 128.413 37.6965 135.371 29.1144 135.371C20.5323 135.371 13.5742 128.413 13.5742 119.831C13.5742 111.249 20.5323 104.291 29.1144 104.291Z" fill="#BADFDE"/>
<path fill-rule="evenodd" clip-rule="evenodd" d="M28.0805 102.206C36.6944 102.206 43.6843 109.196 43.6843 117.81C43.6843 126.424 36.6944 133.414 28.0805 133.414C19.4665 133.414 12.4766 126.424 12.4766 117.81C12.4766 109.196 19.4665 102.206 28.0805 102.206Z" fill="#B7DEDE"/>
<path d="M27.1441 131.408C35.7971 131.408 42.8117 124.393 42.8117 115.74C42.8117 107.087 35.7971 100.073 27.1441 100.073C18.4912 100.073 11.4766 107.087 11.4766 115.74C11.4766 124.393 18.4912 131.408 27.1441 131.408Z" fill="#B7DFE0"/>
<path d="M26.2628 129.385C34.9597 129.385 42.0099 122.335 42.0099 113.638C42.0099 104.941 34.9597 97.8906 26.2628 97.8906C17.5658 97.8906 10.5156 104.941 10.5156 113.638C10.5156 122.335 17.5658 129.385 26.2628 129.385Z" fill="#B7DFE0"/>
<path fill-rule="evenodd" clip-rule="evenodd" d="M25.4827 95.709C34.2081 95.709 41.2936 102.794 41.2936 111.52C41.2936 120.245 34.2081 127.331 25.4827 127.331C16.7573 127.331 9.67188 120.245 9.67188 111.52C9.67188 102.794 16.7414 95.709 25.4827 95.709Z" fill="#B4DEE1"/>
<path fill-rule="evenodd" clip-rule="evenodd" d="M24.7495 93.4966C33.5227 93.4966 40.6241 100.614 40.6241 109.371C40.6241 118.144 33.5068 125.246 24.7495 125.246C15.9764 125.246 8.875 118.128 8.875 109.371C8.875 100.598 15.9764 93.4966 24.7495 93.4966Z" fill="#B4DEE3"/>
<path fill-rule="evenodd" clip-rule="evenodd" d="M24.1338 91.2358C32.9389 91.2358 40.088 98.3849 40.088 107.19C40.088 115.995 32.9389 123.144 24.1338 123.144C15.3288 123.144 8.17969 115.995 8.17969 107.19C8.17969 98.3849 15.3129 91.2358 24.1338 91.2358Z" fill="#B1DDE3"/>
<path fill-rule="evenodd" clip-rule="evenodd" d="M23.5921 88.9751C32.4449 88.9751 39.6099 96.1401 39.6099 104.993C39.6099 113.846 32.4449 121.011 23.5921 121.011C14.7393 121.011 7.57422 113.846 7.57422 104.993C7.57422 96.1401 14.7393 88.9751 23.5921 88.9751Z" fill="#B1DDE4"/>
<path d="M23.1128 118.845C31.9944 118.845 39.1943 111.645 39.1943 102.763C39.1943 93.8816 31.9944 86.6816 23.1128 86.6816C14.2312 86.6816 7.03125 93.8816 7.03125 102.763C7.03125 111.645 14.2312 118.845 23.1128 118.845Z" fill="#AEDCE6"/>
<path d="M22.7198 116.695C31.6453 116.695 38.8809 109.459 38.8809 100.534C38.8809 91.6081 31.6453 84.3726 22.7198 84.3726C13.7942 84.3726 6.55859 91.6081 6.55859 100.534C6.55859 109.459 13.7942 116.695 22.7198 116.695Z" fill="#AEDCE8"/>
<path fill-rule="evenodd" clip-rule="evenodd" d="M22.4162 82.0635C31.3805 82.0635 38.6411 89.3241 38.6411 98.2883C38.6411 107.253 31.3805 114.513 22.4162 114.513C13.452 114.513 6.19141 107.253 6.19141 98.2883C6.19141 89.3241 13.452 82.0635 22.4162 82.0635Z" fill="#ACDBE6"/>
<path fill-rule="evenodd" clip-rule="evenodd" d="M22.1908 79.7393C31.1869 79.7393 38.4794 87.0316 38.4794 96.0277C38.4794 105.024 31.1869 112.316 22.1908 112.316C13.1947 112.316 5.90234 105.024 5.90234 96.0277C5.90234 87.0316 13.1947 79.7393 22.1908 79.7393Z" fill="#ACDBE4"/>
<path fill-rule="evenodd" clip-rule="evenodd" d="M22.0322 77.4146C31.0761 77.4146 38.4003 84.7388 38.4003 93.7827C38.4003 102.811 31.0761 110.151 22.0322 110.151C13.0042 110.151 5.66406 102.827 5.66406 93.7827C5.66406 84.7388 12.9883 77.4146 22.0322 77.4146Z" fill="#A9DAE2"/>
<path d="M38.1971 94.1416C39.6509 85.1836 33.5676 76.7432 24.6096 75.2893C15.6516 73.8355 7.2112 79.9188 5.75738 88.8768C4.30356 97.8348 10.3869 106.275 19.3449 107.729C28.3028 109.183 36.7433 103.1 38.1971 94.1416Z" fill="#A9DAE0"/>
<path fill-rule="evenodd" clip-rule="evenodd" d="M21.9564 72.7344C31.064 72.7344 38.452 80.1224 38.452 89.2299C38.452 98.3375 31.064 105.725 21.9564 105.725C12.8489 105.725 5.46094 98.3375 5.46094 89.2299C5.46094 80.1224 12.8489 72.7344 21.9564 72.7344Z" fill="#A7D9DE"/>
<path d="M38.3818 89.6271C39.8483 80.591 33.7119 72.0769 24.6758 70.6104C15.6397 69.1439 7.12574 75.2803 5.65924 84.3164C4.19274 93.3525 10.3291 101.867 19.3652 103.333C28.4013 104.8 36.9153 98.6632 38.3818 89.6271Z" fill="#A7D8DD"/>
<path d="M22.1779 101.346C31.3673 101.346 38.8167 93.8966 38.8167 84.7072C38.8167 75.5178 31.3673 68.0684 22.1779 68.0684C12.9885 68.0684 5.53906 75.5178 5.53906 84.7072C5.53906 93.8966 12.9885 101.346 22.1779 101.346Z" fill="#A4D7DC"/>
<path d="M22.3822 99.1482C31.6067 99.1482 39.0847 91.6702 39.0847 82.4456C39.0847 73.2211 31.6067 65.7432 22.3822 65.7432C13.1576 65.7432 5.67969 73.2211 5.67969 82.4456C5.67969 91.6702 13.1576 99.1482 22.3822 99.1482Z" fill="#A4D7DB"/>
<path fill-rule="evenodd" clip-rule="evenodd" d="M22.6685 63.4185C31.9353 63.4185 39.4506 70.9338 39.4506 80.1846C39.4506 89.4514 31.9353 96.9508 22.6685 96.9508C13.4017 96.9508 5.90234 89.4355 5.90234 80.1846C5.90234 70.9338 13.4017 63.4185 22.6685 63.4185Z" fill="#A5D7D9"/>
<path fill-rule="evenodd" clip-rule="evenodd" d="M23.0528 61.1094C32.3514 61.1094 39.8986 68.6566 39.8986 77.9552C39.8986 87.2538 32.3514 94.801 23.0528 94.801C13.7542 94.801 6.20703 87.2538 6.20703 77.9552C6.22295 68.6566 13.7542 61.1094 23.0528 61.1094Z" fill="#A2D6D7"/>
<path fill-rule="evenodd" clip-rule="evenodd" d="M23.4954 58.8179C32.8418 58.8179 40.4049 66.3969 40.4049 75.7274C40.4049 85.0737 32.8259 92.6368 23.4954 92.6368C14.149 92.6368 6.58594 85.0578 6.58594 75.7274C6.58594 66.3969 14.149 58.8179 23.4954 58.8179Z" fill="#9FD5D5"/>
<path d="M36.0052 85.5339C42.6336 78.9056 42.6336 68.1588 36.0052 61.5305C29.3768 54.9021 18.6301 54.9021 12.0017 61.5305C5.37336 68.1589 5.37333 78.9056 12.0017 85.5339C18.6301 92.1623 29.3768 92.1623 36.0052 85.5339Z" fill="#A0D5D3"/>
<path d="M36.6585 83.3959C43.318 76.7364 43.318 65.9393 36.6585 59.2799C29.999 52.6204 19.2019 52.6204 12.5424 59.2798C5.88296 65.9393 5.88296 76.7365 12.5424 83.3959C19.2019 90.0554 29.999 90.0554 36.6585 83.3959Z" fill="#9DD4D3"/>
<path fill-rule="evenodd" clip-rule="evenodd" d="M25.2649 52.0508C34.7228 52.0508 42.3814 59.7094 42.3814 69.1673C42.3814 78.6251 34.7228 86.2837 25.2649 86.2837C15.8071 86.2837 8.14844 78.6251 8.14844 69.1673C8.14844 59.7094 15.823 52.0508 25.2649 52.0508Z" fill="#9AD3D1"/>
<path fill-rule="evenodd" clip-rule="evenodd" d="M26.0122 49.8364C35.5019 49.8364 43.1923 57.5269 43.1923 67.0166C43.1923 76.5063 35.5019 84.1967 26.0122 84.1967C16.5225 84.1967 8.83203 76.5063 8.83203 67.0166C8.83203 57.5269 16.5225 49.8364 26.0122 49.8364Z" fill="#9AD2CF"/>
<path fill-rule="evenodd" clip-rule="evenodd" d="M26.8262 47.6567C36.3477 47.6567 44.086 55.3791 44.086 64.9166C44.086 74.4381 36.3636 82.1763 26.8262 82.1763C17.2887 82.1763 9.56641 74.454 9.56641 64.9166C9.58233 55.3791 17.3046 47.6567 26.8262 47.6567Z" fill="#98D1CD"/>
<path d="M39.9436 75.057C46.7088 68.2919 46.7087 57.3234 39.9436 50.5582C33.1784 43.793 22.2099 43.793 15.4447 50.5582C8.67957 57.3234 8.67957 68.2919 15.4447 75.057C22.2099 81.8222 33.1784 81.8222 39.9436 75.057Z" fill="#98D1CB"/>
<path fill-rule="evenodd" clip-rule="evenodd" d="M28.6372 43.3574C38.2383 43.3574 46.0243 51.1434 46.0243 60.7446C46.0243 70.3457 38.2383 78.1317 28.6372 78.1317C19.036 78.1317 11.25 70.3457 11.25 60.7446C11.25 51.1434 19.036 43.3574 28.6372 43.3574Z" fill="#98D1C9"/>
<path d="M29.6582 76.1884C39.3048 76.1884 47.125 68.3683 47.125 58.7217C47.125 49.075 39.3048 41.2549 29.6582 41.2549C20.0115 41.2549 12.1914 49.075 12.1914 58.7217C12.1914 68.3683 20.0115 76.1884 29.6582 76.1884Z" fill="#95D0C9"/>
<path fill-rule="evenodd" clip-rule="evenodd" d="M30.7258 39.1855C40.4066 39.1855 48.2562 47.0352 48.2562 56.716C48.2562 66.3967 40.4066 74.2465 30.7258 74.2465C21.045 74.2465 13.1953 66.3967 13.1953 56.716C13.1953 47.0352 21.045 39.1855 30.7258 39.1855Z" fill="#95D0C7"/>
<path d="M31.8715 72.368C41.5885 72.368 49.4657 64.4908 49.4657 54.7738C49.4657 45.0568 41.5885 37.1797 31.8715 37.1797C22.1545 37.1797 14.2773 45.0568 14.2773 54.7738C14.2773 64.4908 22.1545 72.368 31.8715 72.368Z" fill="#93CFC5"/>
<path fill-rule="evenodd" clip-rule="evenodd" d="M33.0839 35.1719C42.8443 35.1719 50.7576 43.0853 50.7576 52.8456C50.7576 62.606 42.8443 70.5194 33.0839 70.5194C23.3235 70.5194 15.4102 62.606 15.4102 52.8456C15.4261 43.0853 23.3394 35.1719 33.0839 35.1719Z" fill="#93CFC3"/>
<path fill-rule="evenodd" clip-rule="evenodd" d="M34.339 33.2148C44.1312 33.2148 52.0765 41.16 52.0765 50.9523C52.0765 60.7445 44.1312 68.6897 34.339 68.6897C24.5468 68.6897 16.6016 60.7445 16.6016 50.9523C16.6016 41.16 24.5468 33.2148 34.339 33.2148Z" fill="#90CEC3"/>
<path fill-rule="evenodd" clip-rule="evenodd" d="M35.6761 31.3188C45.5002 31.3188 53.4773 39.2959 53.4773 49.12C53.4773 58.96 45.5002 66.9211 35.6761 66.9211C25.8521 66.9211 17.875 58.944 17.875 49.12C17.875 39.28 25.8361 31.3188 35.6761 31.3188Z" fill="#90CDC1"/>
<path d="M37.064 65.1857C46.9305 65.1857 54.9289 57.1874 54.9289 47.3209C54.9289 37.4544 46.9305 29.4561 37.064 29.4561C27.1976 29.4561 19.1992 37.4544 19.1992 47.3209C19.1992 57.1874 27.1976 65.1857 37.064 65.1857Z" fill="#8DCCBF"/>
<path d="M38.4835 63.4983C48.3939 63.4983 56.4279 55.4643 56.4279 45.5538C56.4279 35.6434 48.3939 27.6094 38.4835 27.6094C28.573 27.6094 20.5391 35.6434 20.5391 45.5538C20.5391 55.4643 28.573 63.4983 38.4835 63.4983Z" fill="#8DCCBF"/>
<path fill-rule="evenodd" clip-rule="evenodd" d="M39.9769 25.8428C49.9283 25.8428 57.985 33.8995 57.985 43.8509C57.985 53.8023 49.9283 61.859 39.9769 61.859C30.0254 61.859 21.9688 53.8023 21.9688 43.8509C21.9688 33.9154 30.0414 25.8428 39.9769 25.8428Z" fill="#8DCCBD"/>
<path fill-rule="evenodd" clip-rule="evenodd" d="M41.5171 24.123C51.5004 24.123 59.589 32.2116 59.589 42.1949C59.589 52.1782 51.5004 60.2667 41.5171 60.2667C31.5339 60.2667 23.4453 52.1782 23.4453 42.1949C23.4453 32.2116 31.5339 24.123 41.5171 24.123Z" fill="#8DCCBB"/>
<path fill-rule="evenodd" clip-rule="evenodd" d="M43.1124 22.4189C53.1275 22.4189 61.2638 30.5393 61.2638 40.5704C61.2638 50.5855 53.1434 58.7218 43.1124 58.7218C33.0972 58.7218 24.9609 50.6014 24.9609 40.5704C24.9609 30.5552 33.0813 22.4189 43.1124 22.4189Z" fill="#8ACBBB"/>
<path d="M44.7698 57.2413C54.8297 57.2413 62.9849 49.0861 62.9849 39.0262C62.9849 28.9662 54.8297 20.811 44.7698 20.811C34.7098 20.811 26.5547 28.9662 26.5547 39.0262C26.5547 49.0861 34.7098 57.2413 44.7698 57.2413Z" fill="#88CAB7"/>
<path fill-rule="evenodd" clip-rule="evenodd" d="M46.4585 19.2188C56.5533 19.2188 64.7373 27.4028 64.7373 37.4976C64.7373 47.5923 56.5533 55.7764 46.4585 55.7764C36.3638 55.7764 28.1797 47.5923 28.1797 37.4976C28.1797 27.4188 36.3638 19.2188 46.4585 19.2188Z" fill="#88CAB7"/>
<path d="M48.1944 54.4073C58.3334 54.4073 66.5528 46.1879 66.5528 36.0488C66.5528 25.9098 58.3334 17.6904 48.1944 17.6904C38.0553 17.6904 29.8359 25.9098 29.8359 36.0488C29.8359 46.1879 38.0553 54.4073 48.1944 54.4073Z" fill="#88C9B5"/>
<path fill-rule="evenodd" clip-rule="evenodd" d="M49.9768 16.2256C60.1512 16.2256 68.3989 24.4734 68.3989 34.6477C68.3989 44.8221 60.1512 53.0698 49.9768 53.0698C39.8025 53.0698 31.5547 44.8221 31.5547 34.6477C31.5547 24.4734 39.8025 16.2256 49.9768 16.2256Z" fill="#85C8B5"/>
<path d="M51.7905 51.7792C61.9999 51.7792 70.2763 43.5028 70.2763 33.2934C70.2763 23.084 61.9999 14.8076 51.7905 14.8076C41.581 14.8076 33.3047 23.084 33.3047 33.2934C33.3047 43.5028 41.581 51.7792 51.7905 51.7792Z" fill="#82C7B1"/>
<path fill-rule="evenodd" clip-rule="evenodd" d="M53.6514 13.4395C63.9053 13.4395 72.2168 21.7509 72.2168 32.0049C72.2168 42.2588 63.9053 50.5703 53.6514 50.5703C43.3974 50.5703 35.0859 42.2588 35.0859 32.0049C35.1019 21.7509 43.4133 13.4395 53.6514 13.4395Z" fill="#82C7B1"/>
<path fill-rule="evenodd" clip-rule="evenodd" d="M55.5627 12.1484C65.8485 12.1484 74.1918 20.4917 74.1918 30.7776C74.1918 41.0634 65.8485 49.4066 55.5627 49.4066C45.2769 49.4066 36.9336 41.0634 36.9336 30.7776C36.9336 20.4758 45.2769 12.1484 55.5627 12.1484Z" fill="#7FC6AF"/>
<path fill-rule="evenodd" clip-rule="evenodd" d="M57.5053 10.8906C67.823 10.8906 76.1981 19.2658 76.1981 29.5834C76.1981 39.9011 67.823 48.2762 57.5053 48.2762C47.1876 48.2762 38.8125 39.9011 38.8125 29.5834C38.7966 19.2658 47.1717 10.8906 57.5053 10.8906Z" fill="#7FC6AD"/>
<path d="M59.4677 47.2416C69.8354 47.2416 78.2401 38.8369 78.2401 28.4692C78.2401 18.1015 69.8354 9.69678 59.4677 9.69678C49.1 9.69678 40.6953 18.1015 40.6953 28.4692C40.6953 38.8369 49.1 47.2416 59.4677 47.2416Z" fill="#7CC5AB"/>
<path d="M61.4884 46.2557C71.8913 46.2557 80.3245 37.8224 80.3245 27.4196C80.3245 17.0167 71.8913 8.5835 61.4884 8.5835C51.0855 8.5835 42.6523 17.0167 42.6523 27.4196C42.6523 37.8224 51.0855 46.2557 61.4884 46.2557Z" fill="#79C3A9"/>
<path fill-rule="evenodd" clip-rule="evenodd" d="M63.5091 7.49951C73.9542 7.49951 82.4089 15.9702 82.4089 26.3993C82.4089 36.8443 73.9383 45.2991 63.5091 45.2991C53.0641 45.2991 44.6094 36.8284 44.6094 26.3993C44.6094 15.9702 53.08 7.49951 63.5091 7.49951Z" fill="#79C3A9"/>
<path fill-rule="evenodd" clip-rule="evenodd" d="M65.5809 6.5127C76.0578 6.5127 84.5444 14.9993 84.5444 25.4921C84.5444 35.9849 76.0419 44.4556 65.5809 44.4556C55.104 44.4556 46.6016 35.969 46.6016 25.4921C46.6016 15.0152 55.104 6.5127 65.5809 6.5127Z" fill="#79C3A7"/>
<path fill-rule="evenodd" clip-rule="evenodd" d="M67.6798 5.57324C78.1885 5.57324 86.7229 14.0917 86.7229 24.6164C86.7229 35.1251 78.2044 43.6594 67.6798 43.6594C57.1711 43.6594 48.6367 35.141 48.6367 24.6164C48.6367 14.0917 57.1711 5.57324 67.6798 5.57324Z" fill="#79C3A5"/>
<path d="M69.8021 42.8957C80.3545 42.8957 88.9089 34.3413 88.9089 23.7889C88.9089 13.2365 80.3545 4.68213 69.8021 4.68213C59.2497 4.68213 50.6953 13.2365 50.6953 23.7889C50.6953 34.3413 59.2497 42.8957 69.8021 42.8957Z" fill="#76C2A5"/>
<path d="M71.9478 42.2272C82.5353 42.2272 91.1182 33.6443 91.1182 23.0567C91.1182 12.4691 82.5353 3.88623 71.9478 3.88623C61.3602 3.88623 52.7773 12.4691 52.7773 23.0567C52.7773 33.6443 61.3602 42.2272 71.9478 42.2272Z" fill="#76C2A3"/>
<path d="M74.0977 41.6207C84.7292 41.6207 93.3478 33.0022 93.3478 22.3707C93.3478 11.7391 84.7292 3.12061 74.0977 3.12061C63.4662 3.12061 54.8477 11.7391 54.8477 22.3707C54.8477 33.0022 63.4662 41.6207 74.0977 41.6207Z" fill="#73C1A1"/>
<path fill-rule="evenodd" clip-rule="evenodd" d="M76.2747 2.43652C86.9426 2.43652 95.5885 11.0823 95.5885 21.7503C95.5885 32.4182 86.9426 41.0641 76.2747 41.0641C65.6068 41.0641 56.9609 32.4182 56.9609 21.7503C56.9609 11.0823 65.6227 2.43652 76.2747 2.43652Z" fill="#73C19F"/>
<path d="M78.4947 40.5865C89.1965 40.5865 97.8721 31.9109 97.8721 21.209C97.8721 10.5071 89.1965 1.83154 78.4947 1.83154C67.7928 1.83154 59.1172 10.5071 59.1172 21.209C59.1172 31.9109 67.7928 40.5865 78.4947 40.5865Z" fill="#73C19F"/>
<path fill-rule="evenodd" clip-rule="evenodd" d="M80.7071 1.27393C91.4546 1.27393 100.164 9.98343 100.164 20.731C100.164 31.4785 91.4546 40.188 80.7071 40.188C69.9595 40.188 61.25 31.4785 61.25 20.731C61.25 9.98343 69.9595 1.27393 80.7071 1.27393Z" fill="#70BF9D"/>
<path fill-rule="evenodd" clip-rule="evenodd" d="M82.9348 0.796387C93.7142 0.796387 102.456 9.53775 102.456 20.3172C102.456 31.0966 93.7142 39.8379 82.9348 39.8379C72.1554 39.8379 63.4141 31.0966 63.4141 20.3172C63.4141 9.53775 72.1554 0.796387 82.9348 0.796387Z" fill="#70BF9B"/>
<path fill-rule="evenodd" clip-rule="evenodd" d="M85.1782 0.382812C95.9894 0.382812 104.763 9.15598 104.763 19.9672C104.763 30.7785 95.9894 39.5517 85.1782 39.5517C74.3669 39.5517 65.5938 30.7785 65.5938 19.9672C65.5938 9.15598 74.351 0.382812 85.1782 0.382812Z" fill="#6CBE99"/>
<path d="M87.4219 39.3281C98.282 39.3281 107.086 30.5242 107.086 19.6641C107.086 8.8039 98.282 0 87.4219 0C76.5617 0 67.7578 8.8039 67.7578 19.6641C67.7578 30.5242 76.5617 39.3281 87.4219 39.3281Z" fill="#6DBE97"/>
</svg>
