<?xml version="1.0" standalone="no"?>
<!DOCTYPE svg PUBLIC "-//W3C//DTD SVG 20010904//EN"
 "http://www.w3.org/TR/2001/REC-SVG-20010904/DTD/svg10.dtd">
<svg version="1.0" xmlns="http://www.w3.org/2000/svg"
 width="1080.000000pt" height="1080.000000pt" viewBox="0 0 1080.000000 1080.000000"
 preserveAspectRatio="xMidYMid meet">
<metadata>
Created by potrace 1.14, written by Peter Selinger 2001-2017
</metadata>
<g transform="translate(0.000000,1080.000000) scale(0.100000,-0.100000)"
fill="#000000" stroke="none">
<path d="M6269 10796 c-2 -2 -31 -7 -64 -11 -32 -3 -62 -8 -65 -10 -3 -2 -26
-6 -50 -10 -66 -9 -127 -20 -140 -25 -3 -1 -8 -2 -12 -1 -4 0 -36 -6 -70 -14
-35 -8 -76 -16 -93 -19 -42 -8 -61 -12 -135 -31 -36 -9 -72 -18 -80 -20 -8 -2
-15 -4 -15 -5 0 -1 -9 -3 -20 -5 -36 -7 -199 -53 -226 -63 -15 -6 -30 -8 -33
-5 -3 4 -6 0 -6 -7 0 -7 -3 -11 -6 -8 -8 8 -282 -83 -339 -113 -12 -5 -27 -11
-35 -13 -8 -1 -32 -10 -54 -19 -21 -9 -40 -17 -43 -17 -2 0 -23 -8 -46 -19
-23 -10 -76 -33 -117 -51 -41 -18 -113 -51 -160 -73 -47 -23 -87 -42 -90 -42
-12 -1 -355 -190 -358 -197 -2 -4 -8 -8 -13 -8 -12 0 -193 -112 -197 -122 -2
-5 -8 -8 -13 -8 -11 0 -72 -42 -77 -53 -2 -4 -8 -5 -13 -1 -5 3 -12 -2 -15
-10 -3 -9 -10 -16 -15 -16 -12 0 -288 -199 -356 -256 -12 -11 -39 -32 -60 -49
-59 -47 -250 -213 -296 -257 -136 -131 -236 -231 -295 -296 -37 -40 -80 -88
-97 -106 -16 -18 -48 -54 -70 -80 -22 -27 -47 -56 -55 -66 -54 -63 -91 -110
-176 -225 -53 -71 -119 -164 -147 -205 -28 -41 -53 -77 -56 -80 -8 -7 -26 -37
-52 -85 -12 -22 -25 -42 -29 -45 -4 -3 -15 -18 -24 -35 -9 -16 -25 -43 -35
-60 -10 -16 -29 -50 -43 -75 -14 -25 -34 -61 -45 -80 -68 -120 -103 -190 -96
-190 4 0 3 -4 -2 -8 -13 -9 -98 -182 -98 -199 0 -7 -4 -13 -8 -13 -6 0 -16
-23 -24 -58 -2 -7 -15 -35 -29 -62 -14 -28 -27 -53 -27 -57 -2 -13 -10 -35
-45 -123 -19 -46 -34 -92 -34 -102 0 -10 -4 -18 -8 -18 -5 0 -9 -6 -9 -12 0
-7 -13 -49 -28 -93 -15 -44 -28 -84 -30 -90 -1 -5 -5 -17 -8 -25 -14 -38 -29
-87 -33 -110 -3 -14 -14 -54 -24 -90 -17 -59 -55 -219 -66 -280 -3 -14 -11
-57 -19 -95 -8 -39 -16 -86 -19 -105 -3 -19 -7 -46 -10 -60 -9 -47 -18 -105
-21 -140 -1 -19 -6 -60 -9 -90 -26 -219 -30 -299 -31 -610 0 -274 6 -437 21
-555 9 -70 14 -119 19 -160 2 -22 4 -40 5 -40 1 0 3 -15 5 -34 6 -59 26 -174
42 -246 8 -38 17 -79 19 -90 3 -22 7 -38 23 -105 7 -25 14 -56 17 -70 3 -14
14 -54 24 -90 11 -36 21 -74 23 -85 2 -11 7 -27 10 -35 8 -21 81 -244 82 -250
0 -3 6 -15 13 -28 7 -12 11 -22 8 -22 -4 0 75 -201 111 -279 64 -142 198 -404
239 -468 8 -12 26 -44 40 -70 36 -65 97 -157 106 -161 5 -2 8 -8 8 -14 0 -5
18 -35 40 -66 22 -31 46 -65 53 -76 6 -10 18 -25 25 -32 7 -8 10 -14 6 -14 -4
0 2 -8 12 -18 10 -9 35 -39 53 -67 19 -27 38 -52 41 -55 3 -3 39 -45 80 -95
41 -49 77 -92 80 -95 3 -3 18 -21 34 -40 40 -50 198 -212 298 -305 90 -84 121
-112 208 -185 29 -25 58 -50 64 -55 6 -6 32 -26 59 -43 26 -18 47 -37 47 -41
0 -5 8 -11 18 -15 15 -5 186 -126 220 -156 6 -6 12 -7 12 -3 0 4 4 3 8 -3 8
-12 98 -74 107 -74 4 0 19 -8 33 -19 27 -19 63 -40 162 -94 30 -17 69 -38 85
-48 158 -91 546 -257 730 -312 28 -9 66 -21 85 -28 51 -18 63 -21 80 -25 34
-6 46 -10 58 -17 6 -5 12 -6 12 -3 0 3 11 1 25 -4 14 -5 36 -12 48 -14 12 -3
31 -7 42 -10 104 -25 155 -36 185 -41 19 -3 51 -10 70 -15 19 -5 60 -12 90
-15 30 -3 62 -8 70 -10 8 -2 40 -6 70 -10 30 -3 71 -8 90 -11 20 -3 67 -7 105
-9 39 -2 95 -7 125 -10 146 -16 588 -5 780 20 30 4 73 9 95 10 22 2 50 6 61 8
33 8 96 19 129 22 17 2 47 8 68 13 20 6 37 8 37 5 0 -3 6 0 13 6 8 6 17 8 20
4 4 -3 13 -1 20 5 8 7 17 9 20 6 3 -4 30 1 59 10 29 9 87 25 128 36 41 11 80
22 85 23 6 2 30 9 55 16 67 18 114 34 125 42 6 5 22 10 35 12 14 3 39 10 55
17 17 6 32 11 35 11 3 0 14 6 25 13 11 7 47 23 80 35 33 12 65 27 72 33 7 6
13 8 13 5 0 -7 292 137 365 180 33 20 84 51 112 70 29 18 57 33 62 33 5 0 16
6 23 13 7 6 33 26 58 42 25 17 50 33 55 38 35 26 145 106 176 129 21 14 46 35
56 45 10 10 36 32 57 48 120 93 422 397 501 504 14 19 29 37 33 40 5 3 28 33
53 66 24 33 47 61 51 63 3 2 26 33 50 70 23 37 46 68 50 70 5 2 8 10 8 18 0 8
5 14 10 14 6 0 10 7 10 15 0 8 4 15 9 15 5 0 11 8 15 17 3 10 14 30 23 45 61
91 243 430 243 451 0 3 15 38 34 78 19 40 32 77 30 81 -3 4 -1 8 4 8 5 0 9 6
9 13 0 6 14 46 31 87 17 41 33 86 36 100 3 14 13 45 22 70 9 25 17 52 19 60 2
8 15 57 29 108 13 51 25 95 25 97 1 3 1 6 2 8 1 2 2 10 13 57 3 14 8 36 11 50
3 14 8 43 11 65 2 22 6 45 9 52 2 6 7 38 10 70 4 32 8 69 11 83 6 36 15 118
17 167 2 23 6 45 9 49 4 4 3 15 -3 25 -5 11 -6 19 -2 19 15 0 5 481 -12 605
-4 28 -9 66 -10 85 -2 19 -4 37 -5 40 -1 3 -2 9 -1 13 1 5 -3 25 -8 45 -6 20
-12 56 -15 78 -2 23 -9 59 -15 80 -6 22 -13 55 -16 74 -10 51 -9 50 -29 115
-38 125 -59 190 -65 200 -3 6 -7 20 -9 33 -1 13 -18 58 -37 102 -19 43 -35 82
-35 86 0 9 -40 96 -95 204 -63 125 -79 155 -87 158 -5 2 -8 10 -8 17 0 8 -6
20 -13 27 -7 7 -30 42 -50 78 -37 64 -160 239 -175 249 -4 3 -19 22 -32 41
-73 105 -309 347 -470 480 -24 19 -50 42 -60 50 -40 35 -76 59 -83 57 -5 -1
-13 6 -18 16 -6 9 -15 17 -21 17 -6 0 -18 8 -27 18 -9 10 -23 22 -31 25 -8 4
-28 16 -45 27 -16 11 -38 23 -47 26 -10 4 -18 10 -18 15 0 4 -28 22 -62 39
-35 18 -75 41 -89 51 -26 18 -117 60 -122 56 -1 -1 -15 7 -32 18 -31 22 -47
30 -130 65 -100 43 -325 122 -325 114 0 -2 -20 5 -45 16 -25 11 -45 17 -45 14
0 -2 -8 0 -18 5 -10 5 -37 12 -60 15 -23 3 -47 8 -52 11 -5 3 -22 8 -37 10
-27 4 -112 19 -163 29 -14 3 -47 7 -75 10 -27 3 -61 8 -73 10 -96 21 -493 22
-662 2 -36 -4 -78 -9 -95 -10 -90 -8 -236 -65 -295 -115 -116 -99 -185 -205
-215 -334 -14 -61 -15 -217 -1 -267 4 -14 8 -29 10 -35 29 -100 108 -217 192
-283 41 -33 138 -93 147 -91 1 0 14 -4 30 -10 57 -22 88 -24 327 -27 135 -1
254 -4 265 -7 11 -3 52 -8 90 -13 71 -8 83 -10 88 -13 1 -2 13 -4 27 -7 49 -7
234 -64 306 -92 74 -30 208 -96 212 -104 2 -5 9 -8 16 -8 15 0 212 -128 243
-159 12 -11 25 -21 28 -21 15 0 206 -187 267 -262 18 -22 41 -50 51 -61 31
-36 147 -214 147 -225 0 -6 3 -12 8 -14 22 -9 167 -351 157 -369 -4 -5 -2 -9
3 -9 5 0 16 -33 26 -72 9 -40 19 -82 21 -93 24 -103 31 -155 39 -275 8 -117 9
-188 2 -198 -3 -6 -2 -13 4 -17 6 -4 8 -10 5 -15 -3 -4 -7 -41 -9 -82 -3 -40
-7 -89 -10 -108 -2 -19 -8 -57 -12 -85 -4 -27 -8 -57 -9 -65 -1 -8 -12 -58
-24 -110 -12 -52 -24 -103 -26 -114 -2 -10 -9 -24 -16 -32 -6 -8 -9 -14 -6
-14 7 0 -37 -132 -63 -187 -11 -24 -20 -45 -20 -49 0 -11 -110 -226 -130 -254
-11 -15 -20 -31 -20 -34 0 -10 -144 -211 -194 -271 -48 -57 -230 -242 -292
-296 -16 -14 -56 -45 -89 -70 -33 -24 -62 -46 -65 -49 -3 -3 -27 -20 -55 -38
-27 -17 -55 -36 -62 -42 -7 -5 -28 -17 -47 -27 -20 -9 -36 -20 -36 -25 0 -4
-9 -8 -19 -8 -11 0 -21 -4 -23 -8 -3 -9 -139 -76 -175 -87 -13 -3 -23 -11 -23
-16 0 -5 -6 -9 -12 -7 -7 1 -22 -3 -33 -9 -63 -35 -403 -135 -500 -147 -22 -3
-51 -7 -65 -10 -44 -8 -123 -18 -170 -22 -66 -4 -407 -5 -460 0 -64 6 -151 16
-180 22 -14 3 -43 7 -65 10 -22 3 -56 9 -75 14 -19 5 -48 11 -65 14 -16 3 -45
10 -64 16 -19 5 -38 7 -42 4 -5 -3 -9 -1 -9 4 0 5 -12 12 -27 15 -57 10 -123
31 -188 58 -16 7 -33 13 -37 14 -5 2 -10 4 -13 5 -3 1 -8 3 -12 5 -5 1 -21 7
-36 13 -16 7 -31 12 -35 12 -15 0 -352 173 -352 181 0 5 -5 9 -10 9 -10 0
-129 72 -160 97 -8 6 -55 42 -105 79 -117 88 -147 115 -285 254 -150 149 -320
352 -320 380 0 6 -4 10 -10 10 -5 0 -10 5 -10 10 0 6 -9 20 -20 32 -11 12 -26
34 -32 50 -7 15 -16 28 -20 28 -5 0 -8 4 -8 10 0 5 -15 33 -34 62 -50 79 -168
329 -211 448 -20 58 -41 114 -45 125 -23 62 -69 232 -75 275 -2 14 -4 25 -5
25 -2 0 -8 31 -15 84 -3 25 -8 47 -9 50 -2 3 -7 33 -11 66 -4 33 -9 71 -11 85
-21 166 -21 577 1 700 2 14 7 48 10 75 7 66 14 115 20 145 3 14 9 50 15 80 16
89 19 100 23 108 3 4 8 23 11 42 6 38 50 187 85 285 12 33 23 68 26 78 2 9 7
23 12 30 4 6 8 14 9 17 1 6 11 30 44 105 39 89 43 100 42 108 -1 4 2 7 6 7 4
0 14 17 21 38 8 20 19 44 26 52 6 8 33 56 60 105 26 50 51 92 56 93 5 2 9 10
9 18 0 8 8 22 18 32 9 10 26 34 36 53 11 19 22 36 26 39 3 3 16 22 29 43 13
21 28 43 34 50 7 7 34 41 62 77 27 36 54 70 60 76 5 7 26 31 45 55 91 112 230
250 390 389 29 25 57 50 63 55 42 36 179 135 187 135 6 0 10 5 10 10 0 6 7 10
15 10 8 0 15 4 15 8 0 9 125 91 190 126 19 10 42 24 50 31 8 7 25 16 38 19 12
4 22 12 22 17 0 5 9 9 20 9 11 0 20 3 20 8 0 8 57 35 64 30 2 -2 13 6 25 16
12 11 21 15 21 10 0 -5 4 -4 8 1 15 22 336 158 346 147 3 -3 6 1 6 8 0 7 3 11
6 8 3 -4 22 1 42 9 44 19 135 46 292 89 58 16 352 74 403 79 34 4 73 8 87 10
14 1 57 6 95 9 80 8 133 15 155 21 8 2 30 7 48 10 40 7 192 58 235 80 16 8 36
15 44 15 7 0 13 4 13 9 0 5 14 14 32 22 36 15 129 77 140 93 4 6 8 8 8 3 0
-17 240 217 240 235 0 4 8 16 18 26 23 23 72 99 72 111 0 5 3 11 8 13 10 4 52
90 52 106 0 6 5 12 12 12 6 0 9 3 5 6 -3 3 3 27 14 52 19 44 45 128 55 180 11
61 15 80 20 122 7 59 7 247 0 286 -3 17 -8 47 -10 67 -6 46 -21 105 -49 187
-11 36 -22 67 -22 70 -3 16 -80 166 -87 168 -4 2 -8 8 -8 13 0 11 -42 72 -52
77 -5 2 -8 8 -8 13 0 14 -44 64 -140 159 -169 170 -392 288 -629 336 -67 14
-362 29 -372 20z"/>
</g>
</svg>
